<?xml version="1.0" encoding="UTF-8"?>
<svg id="_레이어_2" data-name="레이어 2" xmlns="http://www.w3.org/2000/svg" viewBox="0 0 372.55 82.32">
  <defs>
    <style>
      .cls-1 {
        fill: #fff;
      }
    </style>
  </defs>
  <g id="_레이어_1-2" data-name="레이어 1">
    <g>
      <polygon class="cls-1" points="35.45 42.69 26 20.64 25.83 20.64 16.36 42.72 9.56 20.48 0 20.48 14.38 65.13 14.87 65.13 25.81 41.16 36.9 65.13 37.42 65.13 51.8 20.48 42.22 20.48 35.45 42.69"/>
      <polygon class="cls-1" points="80.93 38.12 65.07 38.12 65.07 20.48 56.22 20.48 56.22 64.58 65.07 64.58 65.07 46.91 80.93 46.91 80.93 64.58 89.78 64.58 89.78 20.48 80.93 20.48 80.93 38.12"/>
      <polygon class="cls-1" points="171.34 38.1 156.11 38.1 156.11 29.21 173.86 29.21 173.86 20.37 147.23 20.37 147.23 64.64 156.11 64.64 156.11 46.94 171.34 46.94 171.34 38.1"/>
      <path class="cls-1" d="M191.2,19.38l-21.1,45.2h9.59l2.82-6.16h17.67l2.79,6.16h9.62l-21.12-45.2h-.27ZM185.97,50.87l5.4-11.79,5.37,11.79h-10.77Z"/>
      <path class="cls-1" d="M131.14,23.4l-.21-6.52-5.22,3.86c-2.27-.76-4.7-1.18-7.21-1.18-12.63,0-22.96,10.34-22.96,23.01s10.33,22.85,22.93,22.85,23.01-10.29,23.01-22.85c0-7.99-4.12-15.05-10.34-19.18ZM118.46,56.45c-7.7,0-13.97-6.27-13.97-13.92s6.27-14.01,13.97-14.01,14.03,6.29,14.03,14.01-6.3,13.92-14.03,13.92Z"/>
      <path class="cls-1" d="M323.46.94c-.19-.56-.66-.92-1.17-.92l-16.81-.02c-.84.08-1.49.79-1.19,1.69l7.12,21.35-21.27,41.99c-.46.91-.18,1.82.03,2.68l4.8,13.55c.21.6.69,1.06,1.42,1.05l16.6-.12c1.18,0,.96-1.81.5-2.54-.42-.66-.63-2.38.52-2.39l15.52-.07c1.1,1.22,1.29,4.63,2.46,5.01l16.88.09c.79,0,1.66-.64,1.36-1.53L323.46.94ZM324.2,66.06l-13.22.04c-.58,0-1.05-.26-1.24-.61-.25-.43-.24-.89.04-1.4l8.1-14.95c.29-.54.62-.76,1.11-.78.59-.03,1.05.26,1.27.92l5.12,15c.25.75-.09,1.78-1.18,1.79Z"/>
      <path class="cls-1" d="M358.43,39.21c-.22-.64-.25-1.01.09-1.44.22-.29.59-.5,1.12-.5l11.68-.03c.82,0,1.44-.83,1.17-1.63l-3.98-11.82c-.2-.44-.53-.92-1.07-.93l-14.51-.11-7.49-21.95c-.17-.5-.73-.79-1.23-.79h-16.31c-.59,0-1.03.27-1.24.62-.23.39-.26.69-.06,1.27l26.63,79.38c.24.72.76,1.02,1.47,1.02h16.65c.72,0,1.42-.75,1.14-1.56l-14.05-41.52Z"/>
      <polygon class="cls-1" points="260.59 28.02 248.86 39.75 237.14 28.02 235.73 29.44 247.45 41.16 235.73 52.88 237.14 54.3 248.86 42.57 260.59 54.3 262 52.88 250.28 41.16 262 29.44 260.59 28.02"/>
    </g>
  </g>
</svg>