<?xml version="1.0" encoding="UTF-8"?>
<svg id="_레이어_2" data-name="레이어 2" xmlns="http://www.w3.org/2000/svg" viewBox="0 0 160.77 167.95">
  <g id="_레이어_1-2" data-name="레이어 1">
    <g>
      <path d="M160.77,18.92v1.59c-.21,1.26-1.25,2.47-1.64,3.63.33,1.25,1.23,2.55.83,3.97-.35,1.24-1.22,1.7-2.17,2.1-1.2.51-1.99-.36-3.02-.57-.83-.17-.86,1.42-.63,2.01.62,1.53.32,3.1-.87,4.01s-2.84.82-4.19-.21c-.49.29-1.69,1.14-1.56,1.8.25,1.23,1.2,2.33.69,3.66s-1.89,1.82-3.24,2.03c-1.49.24-2.8-.66-4.25-.73-1.25-.06-2.53.63-3.84.64-1.04,0-1.92.52-2.6,1.25l-11.74,12.59-11.19,11.76-3.74,4.01c-1.78,1.91-3.62,3.58-5.15,5.76,1.12,1.03,2,2.06,3.15,2.93,1.47,1.1,5.47-.9,10.23.38,2.43.65,4.79,1.69,6.41,3.67,5.92,7.19.49,19.43-7.59,23.67l-11.64,6.11c-3.21,1.69-5.49,4.24-6.58,7.73-1.31,4.16-1.87,8.35-2.87,12.63-1.6,6.84-4.84,14.3-9.48,19.62-3.13,3.59-6.68,6.4-10.92,8.7-12.43,6.75-28.02,5.14-39.97-2.13-4.65-2.84-8.93-5.92-12.9-9.67-5.14-4.85-9.47-10.19-13.08-16.24-1.24-2.08-2.07-4.12-3.04-6.35C1.45,122.94-.29,114.88.04,107.97c.47-9.65,3.95-18.88,10.75-25.87,3-3.09,6.19-5.7,9.91-7.83,2.56-1.47,5.31-2.31,8.15-3l9.91-2.39c4.87-1.17,8.8-1.78,10.99-6.48l4.2-9.01c2.94-6.31,7.29-11.34,13.57-14.41,2.66-1.3,5.5-1.66,8.4-1.75,4.28-.13,8.21,1.19,11.65,3.68,2.4,1.74,4.66,3.48,6.49,5.83.83,1.06,1.55,2.16,2.54,3.12,1.55-.93,2.59-2.25,3.82-3.47l6.63-6.54c1.06-1.04,2.04-2.03,3.1-3.08l3.53-3.51,2.82-2.9c.8-.82,1.82-1.52,2.51-2.42.92-1.2.73-2.82,1.06-4.2.29-1.21.52-2.17.11-3.39-.81-2.41-.81-6.1,2.13-6.79.97-.23,1.68.31,2.52.71.5-.09,1.2-.72,1.43-1.21-.72-1.3-1.02-2.86-.28-4.14,1.67-2.88,5.13-.61,5.5-.72.46-.13,1.31-.87,1.43-1.44.08-.38-.42-.48-.57-.84-.43-1.01-.31-2.65.62-3.41,1.3-1.07,3.06-.59,4.4.27.93-.44,1.59-1.14,2.39-1.72,2.89-2.12,6.59-.71,9.16,1.26,1.93,1.48,3.43,3.19,5.08,4.97s3.55,3.16,4.84,5.14,1.42,4.34,1.94,6.49ZM140.64,34.38l2.56-2.78c1.17-1.27,2.6-2.22,3.71-3.55.77-.93,1.19-2.1,2.08-2.95,1.54-1.47,3.33-2.57,5.04-3.82,2.22-1.62-.86-4.87-2.17-6.43-1.42-1.69-5.14-5.43-6.83-7.05-.54-.52-1.65-1.83-2.46-1.11-1.52,1.42-2.9,2.92-4.57,4.26-1.22.98-2.62,1.94-3.39,3.34-.85,1.54-1.64,2.96-3.17,4l-2.95,2.01c-1.08.74-1.61,1.51-1.79,2.82l-.5,3.54c-.11.77-.51,2.05-.02,2.77,2.13,2.48,4.4,4.79,6.91,6.91,1.38,1.16,6.9-1.27,7.54-1.97ZM111.3,59.02l2.52-2.66,3.6-3.89c.72-.78,1.36-1.5,2.06-2.26l4.04-4.39,4.8-5.25c-1.04-1.24-2.12-2.26-3.29-3.2l-3.19-2.55-5.28,5.18-12.79,12.92-8.48,8.75-5.07,5.16,7.12,6.96,2.06-2.07,7.46-7.99,4.45-4.72ZM90.53,118.73c1.13-2.96,3.26-5.32,5.44-7.39,4.65-4.41,16.49-7.53,19.91-13.3,1.28-2.16,2.18-4.68,1.34-7.2-.53-1.59-2.42-2.25-3.97-2.35-7.51-.49-8.66,2.84-16.63-5.87-2.74-3-5.36-5.94-8.28-8.76-2.7-2.61-6.2-4.32-5.63-7.87.2-1.22,1.05-2.03,2.02-3.01l4.4-4.44c.93-.94,1.64-1.95,2.76-2.73.29-.2.73-.75.56-1.13-.45-.99-1.21-1.65-1.9-2.46-2.73-3.23-6.14-5.88-10.1-7.34-3.02-1.11-5.99-1.05-8.92.23-1.03.45-2.15.95-3.02,1.64-2.13,1.69-3.96,3.43-5.55,5.6-4.75,6.49-5.95,13.96-8.49,16.8-2.98,3.34-7.03,4.97-11.28,6.01l-12.26,3c-8.22,2.01-14.92,7.11-19.4,14.26-4.15,6.62-5.66,14.45-4.54,22.26.82,5.74,2.72,10.91,5.33,16.04,5.46,10.73,17.59,22.15,28.5,26.99s22.16,4.92,31.75-1.54c3.84-2.59,6.99-5.82,9.33-9.76,1.12-1.89,2.12-3.69,2.91-5.7,2.69-6.77,3.03-15.04,5.69-21.99Z"/>
      <path d="M89.05,93.05c0,9.45-7.66,17.11-17.1,17.11s-17.1-7.66-17.1-17.11,7.66-17.11,17.1-17.11,17.1,7.66,17.1,17.11ZM78.25,84.65c-4.26-3.65-10.29-3.09-13.88,1.26-2.31,2.79-3.18,6.33-2.13,10.14.82,2.95,2.98,5.81,6.28,7.14,3.02,1.21,6.23.81,9.15-1.07,5.37-3.47,6.21-12.64.57-17.46Z"/>
      <path d="M62.06,124.91c2.64,2.9,2,5.8-.24,8.65-1.36,1.72-2.99,3.25-5.14,3.93-3.05.97-5.51-1.74-7.45-3.64l-17.67-17.31c-1.88-1.85-2.11-4.73-1.14-6.95.78-1.77,1.84-2.96,3.14-4.29,2-2.05,4.94-3.2,7.71-1.92,1.06.49,1.71,1.71,2.49,2.54l4.5,4.82,8.12,8.45c.96,1,1.77,2,2.83,2.89s1.93,1.82,2.84,2.82ZM57.34,128.73l-6.51-6.44c-1.06-1.05-2.01-2.07-3.02-3.16l-3.37-3.67c-2-2.17-4.02-4.2-5.92-6.45-.37-.08-3.04,3.2-2.31,3.35l18.97,18.87c.91-.68,1.62-1.41,2.17-2.5Z"/>
    </g>
  </g>
</svg>