<?xml version="1.0" encoding="UTF-8"?>
<svg id="_레이어_2" data-name="레이어 2" xmlns="http://www.w3.org/2000/svg" viewBox="0 0 239.28 267.41">
  <g id="_레이어_1-2" data-name="레이어 1">
    <g>
      <path d="M122.01,0c3.74,1.04,7.09,2.84,9.75,5.84s2.48,4.46,3.61,7.89l4.89.38c13.75,1.06,27.74,4.65,40.26,10.27,3.19,1.43,5.96,3.09,8.87,4.92,6.6,4.15,12.15,9.27,16.79,15.52,4.12,5.55,6.86,11.53,8.8,18.12,3.06,10.44,2.89,19.35,2.9,30.09,0,1.27.18,2.36.2,3.63l.41,25.8.3,11.63,11.13,5.41c1.9.93,3.71,1.71,5.15,3.36,2.92,3.35,3.55,8.16,1.55,12.25-1.77,3.63-5.65,6.21-10.09,6.21l-103.23.02h-7.32s-103.23-.02-103.23-.02c-4.5,0-8.43-2.66-10.17-6.36-1.91-4.06-1.25-8.79,1.62-12.09,1.4-1.6,3.14-2.39,4.98-3.29l11.29-5.49.3-11.63.41-25.8c.02-1.27.19-2.36.2-3.63.02-10.74-.16-19.65,2.9-30.09,1.93-6.59,4.68-12.57,8.79-18.12,4.63-6.25,10.19-11.37,16.79-15.52,2.91-1.83,5.68-3.49,8.87-4.92,12.57-5.65,26.21-9.12,40.04-10.24l5.09-.41c1.14-3.44.99-4.95,3.61-7.89s6.01-4.8,9.75-5.84h4.8ZM126.45,13.08c-1.34-2.99-3.99-4.65-6.95-4.61s-5.58,1.81-6.71,4.65c4.73-.31,9.04-.22,13.66-.04ZM186.98,132.42l.09-42.96c.02-7.92-.7-15.56-2.88-23.11-4.23-14.63-12.49-24.74-25.11-32.97-11.05-7.2-25.34-11.47-38.49-11.99-4.07-.16-7.89.44-11.84,1.08-9.87,1.61-20.23,5.45-28.61,10.91-12.61,8.2-20.9,18.36-25.11,32.97-2.17,7.54-2.9,15.19-2.88,23.1l.1,42.97h134.73ZM29.04,123.44l-.15,8.95h14.97s-.03-49.85-.03-49.85c0-2.07.4-3.82.6-5.79.71-6.85,2.38-13.27,4.93-19.66,4.8-11.99,12.89-21.13,23.34-28.88-5.96,1.37-11.13,3.94-16.27,6.89-5.61,3.22-10.6,7.14-14.7,12.18-4.13,5.07-7.2,10.75-9.11,16.98-1.07,3.49-1.89,6.78-2.19,10.38l-.5,6.18-.38,13.8-.33,16.41-.19,12.42ZM209.98,110.9l-.33-16.28-.38-13.8-.5-6.18c-.29-3.6-1.11-6.89-2.19-10.38-1.94-6.28-5.03-12.01-9.22-17.11s-8.84-8.71-14.29-11.87-10.49-5.67-16.57-7.07c8.92,6.66,15.52,13.61,20.82,23.3,2.4,5,4.48,10.02,5.74,15.5s2.29,10.81,2.29,16.46v48.9s14.17.06,14.17.06c.4,0,.68-.16.84-.45l-.18-8.83-.19-12.24ZM226.36,152.8c2.1,0,3.31-1.53,2.98-3.27-.53-1.03-1.42-1.53-2.42-2.01l-13.87-6.67h-90.03s-6.82,0-6.82,0H26.17s-13.87,6.68-13.87,6.68c-.99.48-1.91.98-2.4,2-.25.9.07,1.78.63,2.36.64.66,1.33.92,2.44.92l102.97.06h7.32s103.09-.06,103.09-.06Z"/>
      <path d="M157.82,263.45c-6.13-2.41-13-7.96-17-13.23-1.86-2.45-3.48-5.04-4.86-7.82-2.7-5.45-4.71-10.54-6.74-16.28-1.3-3.69-1.99-7.31-3.5-10.91-1.03-2.45-3.32-4.93-6.1-4.93s-5.08,2.48-6.1,4.93c-1.51,3.6-2.2,7.22-3.5,10.91-2.03,5.75-4.04,10.82-6.74,16.28-3.85,7.78-8.83,13.23-16.03,17.97-1.92,1.26-3.69,2.25-5.83,3.08-7.13,2.8-14.5,3.89-22.22,3.95-7.62.06-14.95-.61-22.26-2.72-10.55-3.04-18.05-9.72-21.9-20.05-1.65-4.44-2.6-8.87-3.5-13.54l-3.56-18.48c-.41-2.11-1.26-3.94-2.88-5.28l-3.29-2.72C.77,203.79,0,202.57,0,201.18v-9.36s.28-2.85.28-2.85c.16-1.67,1.08-3.21,2.76-3.69,2.32-.66,4.64-1.24,7.09-1.67l12.13-2.12,4.59-.66c4.92-.71,9.73-1.3,14.68-1.6l6.82-.41c10.89-.65,23.96-.07,34.66,2.16,2.98.62,5.84.98,8.8,1.83.84.24,1.63.58,2.57.44,5.35,1.41,10.59,2.58,16.04,3.66,7.38,1.47,11.03,1.47,18.41,0,5.45-1.08,10.69-2.25,16.03-3.66.94.13,1.73-.2,2.57-.44,2.96-.86,5.82-1.21,8.8-1.83,10.7-2.23,23.76-2.81,34.66-2.16l6.82.41c4.94.3,9.75.89,14.66,1.6l4.36.63,12.37,2.15c2.44.42,4.77,1.01,7.08,1.66,1.76.5,2.6,2,2.8,3.7.43,3.69.21,7.29.31,11,.11,4.14-2.02,4.58-5.13,7.38-1.56,1.41-2.48,3.17-2.89,5.27l-3.57,18.48c-.9,4.67-1.85,9.11-3.5,13.54-3.85,10.33-11.35,17.01-21.9,20.05-7.31,2.11-14.64,2.78-22.26,2.72s-15.09-1.15-22.22-3.95ZM85.11,248.47c1.61-1.3,3-2.52,4.27-4.15.89-1.14,1.83-2.15,2.57-3.42,1.46-2.5,2.86-4.86,3.93-7.6,2.59-6.64,4.58-13.28,5.43-20.37s-.75-14.74-8.03-18.05c-7.34-3.34-18.05-4.87-26.16-5.21-8.53-.36-20.14-.14-28.37,1.33-3.16.57-6.12,1.29-9.06,2.5-2.52,1.04-4.56,2.92-6.17,5.1-1.22,1.65-1.68,3.61-2.13,5.62-2.09,9.31-.24,18.72,1.31,27.97.47,2.77,1.11,5.31,2.21,7.88,1.38,3.23,2.88,6.16,5.42,8.72,3,3.02,6.79,4.8,11.01,5.81,7.8,1.88,15.75,2.44,23.75,1.59,7.3-.78,14.34-3.12,20.04-7.71ZM198,254.56c4.26-1.04,7.95-2.81,10.9-5.79,3.8-3.82,6.55-10.41,7.45-15.66,1.62-9.5,3.62-19.33,1.48-28.9-.45-2-.91-3.97-2.13-5.62-1.61-2.17-3.65-4.06-6.17-5.1-2.93-1.21-5.9-1.93-9.06-2.5-8.24-1.48-19.85-1.7-28.37-1.33s-18.83,1.88-26.16,5.21c-7.28,3.31-8.91,10.66-8.03,18.05s2.84,13.73,5.43,20.37c1.05,2.69,2.41,5,3.84,7.45.77,1.32,1.73,2.39,2.66,3.57,1.27,1.63,2.66,2.84,4.28,4.15,3.56,2.87,7.63,4.86,12.05,6.15,9.74,2.84,21.85,2.37,31.84-.06Z"/>
    </g>
  </g>
</svg>