<?xml version="1.0" encoding="UTF-8"?>
<svg id="_레이어_2" data-name="레이어 2" xmlns="http://www.w3.org/2000/svg" viewBox="0 0 130.38 166.97">
  <g id="_레이어_1-2" data-name="레이어 1">
    <g>
      <path d="M96.02,0l1.39.23c4.74.79,9.39,1.81,13.6,4.07,3.65,1.96,6.8,4.33,9.49,7.42,1.13,1.3,2.23,2.39,3.22,3.84,3.75,5.5,5.98,11.7,6.55,18.4.18,2.11.15,6.88-.16,9.06-.97,6.9-4.03,14.1-8.7,19.26-4.1,4.53-7.49,7.37-13.19,9.78-4.84,2.05-9.69,2.85-14.95,2.8-1.3-.01-2.42,1.36-3.29,2.12l-8.15,7.1-4.79,4.1-14.6,12.7-13.49,11.76-8.83,7.74-6.06,5.12c-1.47,1.24-3.07,2.33-4.85,3.13-3.32,1.48-7.48,1.48-10.31-.68l-3.32-2.53c-5.95,4.99-9.17,10.94-8.07,18.84.7,5.07,3.43,9.33,7.66,12.1,1.87,1.22,3.7,2.07,5.94,2.52,4.74.96,9.65,1.05,14.25-.71s8.24-4.45,11.65-7.71l4.03-3.86c7.32-7.01,12.27-13.46,21.99-18.82,7.7-4.25,17.31-4.98,25.69-2.39,11.29,3.49,18.25,14.02,18.35,25.6.02,1.73-1.32,2.94-2.91,3.19-1.81.28-4.06-.89-4.2-2.87-.34-5.02-1.78-9.66-5.02-13.49-.54-.64-1.18-1.09-1.8-1.63-1.4-1.23-2.81-2.22-4.57-2.96-8.05-3.38-17.62-2.25-24.81,2.68-4,2.74-7.56,5.74-11.01,9.19l-7.85,7.85c-4.72,4.72-11.05,10.19-17.44,12.38-3.88,1.33-8.01,1.92-12.05,1.56-3.19-.28-6.15-.7-9.15-1.79-5.59-2.03-10.22-5.98-13.18-11.12-3.25-5.65-3.72-12.34-2.37-18.63,1.23-6.41,5.08-10.87,9.84-15.28-5.01-5.24-5.24-12.08-.61-17.54l3.73-4.73,2.91-3.9,4.09-5.26,9.13-11.79,18.33-23.47,5.48-7.05,2.72-3.68c.61-.82,1.8-1.84,1.75-3.04-.25-6.69.76-13.21,3.67-19.23.98-2.02,2.09-3.69,3.41-5.51C71.42,6.22,79.99,1.65,90.54.19c.6-.08,1.23.27,1.61-.19h3.87ZM116.01,56.05c.9.39,1.66-.82,2.06-1.44,5.15-7.92,6.48-17.8,3.55-26.77-2.2-6.73-5.86-11.86-11.86-15.64-11.34-7.14-25.29-5.99-35.03,3.1-.42.56.25,1.42.45,1.89,1.4,3.28,3.02,6.17,4.98,9.18,5.59,8.59,12.84,15.81,21.27,21.63,4.93,3.4,8.94,5.58,14.58,8.05ZM107.39,64.31c1.42-.7,2.62-1.31,3.71-2.5-11.43-5.35-17.98-10.1-26.82-18.91-6.11-6.09-10.97-13.09-14.88-20.96-4.53,7.66-4.93,16.52-2.58,24.77,3.71,11.34,13.79,19.91,25.78,20.73,5.21.36,10.09-.82,14.79-3.14ZM16.53,116.03l5.44,5.09c1.63,1.52,4.17,1.66,5.9.16l12.94-11.14,21.84-19.05,4.09-3.5,16.58-14.5c-5.46-1.92-9.98-4.88-14.02-8.81-2.63-2.43-4.61-5.35-6.4-8.42-1.07-2.09-2.09-3.99-2.7-6.27l-4.19,5.46-13.77,17.59-6.61,8.64-2.89,3.73-6.7,8.54-5.26,6.77-5.51,6.99c-2.35,2.99-1.34,6.28,1.27,8.72Z"/>
      <path d="M48.76,90.54c-1.3.59-3.11.31-4.06-.74-1.56-1.73-1.01-4.07.52-5.7l3.83-4.09,3.63-3.92c1.78-1.92,3.68-4.28,6.21-3.06,1.39.67,2.05,2.07,1.96,3.67-.07,1.31-.85,2.23-1.7,3.15l-2.81,3.08-4.36,4.74c-.97,1.05-1.75,2.21-3.22,2.88Z"/>
    </g>
  </g>
</svg>