<svg width="24" height="24" viewBox="0 0 24 24" fill="none" xmlns="http://www.w3.org/2000/svg">
<circle cx="11.9999" cy="12.3114" r="8.34265" fill="url(#paint0_linear_1128_14800)"/>
<circle cx="11.9999" cy="12.3114" r="8.34265" fill="url(#paint1_radial_1128_14800)"/>
<circle cx="11.9999" cy="12.3114" r="8.34265" fill="url(#paint2_radial_1128_14800)"/>
<path fill-rule="evenodd" clip-rule="evenodd" d="M12 22.7891C17.786 22.7891 22.4766 18.0985 22.4766 12.3125C22.4766 6.52646 17.786 1.83594 12 1.83594C6.21396 1.83594 1.52344 6.52646 1.52344 12.3125C1.52344 18.0985 6.21396 22.7891 12 22.7891ZM12 20.4688C16.5046 20.4688 20.1562 16.8171 20.1562 12.3125C20.1562 7.80792 16.5046 4.15625 12 4.15625C7.49542 4.15625 3.84375 7.80792 3.84375 12.3125C3.84375 16.8171 7.49542 20.4688 12 20.4688Z" fill="url(#paint3_linear_1128_14800)"/>
<path fill-rule="evenodd" clip-rule="evenodd" d="M12 22.7891C17.786 22.7891 22.4766 18.0985 22.4766 12.3125C22.4766 6.52646 17.786 1.83594 12 1.83594C6.21396 1.83594 1.52344 6.52646 1.52344 12.3125C1.52344 18.0985 6.21396 22.7891 12 22.7891ZM12 20.4688C16.5046 20.4688 20.1562 16.8171 20.1562 12.3125C20.1562 7.80792 16.5046 4.15625 12 4.15625C7.49542 4.15625 3.84375 7.80792 3.84375 12.3125C3.84375 16.8171 7.49542 20.4688 12 20.4688Z" fill="url(#paint4_radial_1128_14800)" fill-opacity="0.49"/>
<path fill-rule="evenodd" clip-rule="evenodd" d="M12 22.7891C17.786 22.7891 22.4766 18.0985 22.4766 12.3125C22.4766 6.52646 17.786 1.83594 12 1.83594C6.21396 1.83594 1.52344 6.52646 1.52344 12.3125C1.52344 18.0985 6.21396 22.7891 12 22.7891ZM12 20.4688C16.5046 20.4688 20.1562 16.8171 20.1562 12.3125C20.1562 7.80792 16.5046 4.15625 12 4.15625C7.49542 4.15625 3.84375 7.80792 3.84375 12.3125C3.84375 16.8171 7.49542 20.4688 12 20.4688Z" fill="url(#paint5_radial_1128_14800)"/>
<path fill-rule="evenodd" clip-rule="evenodd" d="M12 22.7891C17.786 22.7891 22.4766 18.0985 22.4766 12.3125C22.4766 6.52646 17.786 1.83594 12 1.83594C6.21396 1.83594 1.52344 6.52646 1.52344 12.3125C1.52344 18.0985 6.21396 22.7891 12 22.7891ZM12 20.4688C16.5046 20.4688 20.1562 16.8171 20.1562 12.3125C20.1562 7.80792 16.5046 4.15625 12 4.15625C7.49542 4.15625 3.84375 7.80792 3.84375 12.3125C3.84375 16.8171 7.49542 20.4688 12 20.4688Z" fill="url(#paint6_radial_1128_14800)"/>
<path fill-rule="evenodd" clip-rule="evenodd" d="M12 22.7891C17.786 22.7891 22.4766 18.0985 22.4766 12.3125C22.4766 6.52646 17.786 1.83594 12 1.83594C6.21396 1.83594 1.52344 6.52646 1.52344 12.3125C1.52344 18.0985 6.21396 22.7891 12 22.7891ZM12 20.4688C16.5046 20.4688 20.1562 16.8171 20.1562 12.3125C20.1562 7.80792 16.5046 4.15625 12 4.15625C7.49542 4.15625 3.84375 7.80792 3.84375 12.3125C3.84375 16.8171 7.49542 20.4688 12 20.4688Z" fill="url(#paint7_radial_1128_14800)"/>
<path d="M14.3065 8.46016L14.2612 7.05078L13.1526 7.88567C12.6704 7.72173 12.156 7.63145 11.622 7.63145C8.94208 7.63145 6.75 9.86858 6.75 12.6089C6.75 15.3493 8.94208 17.5508 11.6164 17.5508C14.2907 17.5508 16.5 15.3255 16.5 12.6089C16.5 10.8802 15.6252 9.35301 14.3065 8.46016ZM11.6164 15.6092C9.98209 15.6092 8.65126 14.254 8.65126 12.597C8.65126 10.9401 9.98209 9.56684 11.6164 9.56684C13.2506 9.56684 14.5931 10.9282 14.5931 12.597C14.5931 14.2659 13.2557 15.6092 11.6164 15.6092Z" fill="#DC7B3C"/>
<path d="M14.6063 8.15938L14.561 6.75L13.4524 7.58489C12.9702 7.42095 12.4558 7.33066 11.9218 7.33066C9.24189 7.33066 7.0498 9.5678 7.0498 12.3081C7.0498 15.0485 9.24189 17.25 11.9162 17.25C14.5905 17.25 16.7998 15.0247 16.7998 12.3081C16.7998 10.5794 15.925 9.05223 14.6063 8.15938ZM11.9162 15.3084C10.2819 15.3084 8.95107 13.9532 8.95107 12.2963C8.95107 10.6393 10.2819 9.26606 11.9162 9.26606C13.5504 9.26606 14.8929 10.6275 14.8929 12.2963C14.8929 13.9651 13.5555 15.3084 11.9162 15.3084Z" fill="white"/>
<defs>
<linearGradient id="paint0_linear_1128_14800" x1="8.59569" y1="16.4827" x2="17.6096" y2="5.11946" gradientUnits="userSpaceOnUse">
<stop stop-color="#F09C49"/>
<stop offset="1" stop-color="#E39443"/>
</linearGradient>
<radialGradient id="paint1_radial_1128_14800" cx="0" cy="0" r="1" gradientUnits="userSpaceOnUse" gradientTransform="translate(11.6163 12.7609) rotate(-36.3843) scale(9.05258)">
<stop offset="0.80746" stop-color="#DB7F38" stop-opacity="0"/>
<stop offset="1" stop-color="#D6793C"/>
</radialGradient>
<radialGradient id="paint2_radial_1128_14800" cx="0" cy="0" r="1" gradientUnits="userSpaceOnUse" gradientTransform="translate(11.7871 12.3114) rotate(56.2868) scale(8.56546)">
<stop offset="0.947646" stop-color="#DD871B" stop-opacity="0"/>
<stop offset="0.970843" stop-color="#DD871B"/>
</radialGradient>
<linearGradient id="paint3_linear_1128_14800" x1="12" y1="1.83594" x2="12" y2="22.7891" gradientUnits="userSpaceOnUse">
<stop stop-color="#FFC444"/>
<stop offset="1" stop-color="#FFC24B"/>
</linearGradient>
<radialGradient id="paint4_radial_1128_14800" cx="0" cy="0" r="1" gradientUnits="userSpaceOnUse" gradientTransform="translate(11.625 12.752) rotate(87.8603) scale(10.0441)">
<stop offset="0.778712" stop-color="#FEDB54"/>
<stop offset="0.798389" stop-color="#FFC34A"/>
<stop offset="1" stop-color="#F3AF62"/>
</radialGradient>
<radialGradient id="paint5_radial_1128_14800" cx="0" cy="0" r="1" gradientUnits="userSpaceOnUse" gradientTransform="translate(12 12.3125) rotate(106.133) scale(10.4488)">
<stop offset="0.101115" stop-color="#FFD64D" stop-opacity="0.19"/>
<stop offset="0.818528" stop-color="#FFD64D" stop-opacity="0.44"/>
<stop offset="0.940581" stop-color="#F79852" stop-opacity="0"/>
<stop offset="1" stop-color="#FE9959"/>
</radialGradient>
<radialGradient id="paint6_radial_1128_14800" cx="0" cy="0" r="1" gradientUnits="userSpaceOnUse" gradientTransform="translate(11.2246 13.3797) rotate(-14.7057) scale(11.633)">
<stop offset="0.899413" stop-color="#FFD950" stop-opacity="0"/>
<stop offset="1" stop-color="#FFD950"/>
</radialGradient>
<radialGradient id="paint7_radial_1128_14800" cx="0" cy="0" r="1" gradientUnits="userSpaceOnUse" gradientTransform="translate(16.296 9.10526) rotate(62.4801) scale(7.37426 4.46985)">
<stop offset="0.505549" stop-color="#F8A332"/>
<stop offset="0.73947" stop-color="#F8A332" stop-opacity="0"/>
</radialGradient>
</defs>
</svg>
